<?xml version="1.0" encoding="UTF-8" standalone="no"?>
<!-- Created with Inkscape (http://www.inkscape.org/) -->

<svg
   xmlns:dc="http://purl.org/dc/elements/1.1/"
   xmlns:cc="http://creativecommons.org/ns#"
   xmlns:rdf="http://www.w3.org/1999/02/22-rdf-syntax-ns#"
   xmlns:svg="http://www.w3.org/2000/svg"
   xmlns="http://www.w3.org/2000/svg"
   xmlns:sodipodi="http://sodipodi.sourceforge.net/DTD/sodipodi-0.dtd"
   xmlns:inkscape="http://www.inkscape.org/namespaces/inkscape"
   width="7000"
   height="2600"
   id="svg2"
   version="1.1"
   inkscape:version="0.48.4 r9939"
   sodipodi:docname="wireframe.png">
  <defs
     id="defs4" />
  <sodipodi:namedview
     id="base"
     pagecolor="#ffffff"
     bordercolor="#666666"
     borderopacity="1.0"
     inkscape:pageopacity="0.0"
     inkscape:pageshadow="2"
     inkscape:zoom="0.5"
     inkscape:cx="2343.456"
     inkscape:cy="2150.8976"
     inkscape:document-units="px"
     inkscape:current-layer="layer2"
     showgrid="true"
     showguides="true"
     inkscape:guide-bbox="true"
     width="7000px"
     inkscape:window-width="1366"
     inkscape:window-height="744"
     inkscape:window-x="0"
     inkscape:window-y="24"
     inkscape:window-maximized="1">
    <sodipodi:guide
       orientation="1,0"
       position="700,2102.8571"
       id="guide2985" />
    <sodipodi:guide
       orientation="0,1"
       position="621.42857,1298.5714"
       id="guide2987" />
    <inkscape:grid
       type="xygrid"
       id="grid2989"
       empspacing="5"
       visible="true"
       enabled="true"
       snapvisiblegridlinesonly="true" />
    <sodipodi:guide
       orientation="0,1"
       position="440,2480"
       id="guide3069" />
    <sodipodi:guide
       orientation="0,1"
       position="700,1440"
       id="guide3071" />
    <sodipodi:guide
       orientation="1,0"
       position="1400,1880"
       id="guide3559" />
    <sodipodi:guide
       orientation="1,0"
       position="2100,2420"
       id="guide3561" />
    <sodipodi:guide
       orientation="1,0"
       position="2800,2600"
       id="guide4778" />
    <sodipodi:guide
       orientation="1,0"
       position="3500,2440"
       id="guide5245" />
  </sodipodi:namedview>
  <metadata
     id="metadata7">
    <rdf:RDF>
      <cc:Work
         rdf:about="">
        <dc:format>image/svg+xml</dc:format>
        <dc:type
           rdf:resource="http://purl.org/dc/dcmitype/StillImage" />
        <dc:title></dc:title>
      </cc:Work>
    </rdf:RDF>
  </metadata>
  <g
     inkscape:groupmode="layer"
     id="layer2"
     inkscape:label="back">
    <rect
       style="fill:#999999"
       id="rect3330"
       width="7003.957"
       height="2605.6567"
       x="-5.5943403"
       y="1.0887773" />
    <text
       xml:space="preserve"
       style="font-size:20px;font-style:normal;font-weight:normal;line-height:125%;letter-spacing:0px;word-spacing:0px;fill:#000000;fill-opacity:1;stroke:none;font-family:Sans"
       x="775.20935"
       y="520.43549"
       id="text3433"
       sodipodi:linespacing="125%"><tspan
         sodipodi:role="line"
         id="tspan3435"
         x="775.20935"
         y="520.43549" /></text>
    <text
       xml:space="preserve"
       style="font-size:20px;font-style:normal;font-weight:normal;line-height:125%;letter-spacing:0px;word-spacing:0px;fill:#000000;fill-opacity:1;stroke:none;font-family:Sans"
       x="762.14404"
       y="511.72528"
       id="text3437"
       sodipodi:linespacing="125%"><tspan
         sodipodi:role="line"
         id="tspan3439"
         x="762.14404"
         y="511.72528" /></text>
    <path
       style="fill:#ececec;fill-opacity:1"
       d="m 1480,160 520,0 0,960 -520,0 z"
       id="rect4061"
       inkscape:connector-curvature="0" />
    <path
       style="fill:#ffffff;fill-opacity:1"
       d="m 1480,162 520,0 0,60 -520,0 z"
       id="rect4067"
       inkscape:connector-curvature="0" />
    <g
       style="font-size:20px;font-style:normal;font-weight:normal;line-height:125%;letter-spacing:0px;word-spacing:0px;fill:#000000;fill-opacity:1;stroke:none;font-family:Sans"
       id="text4063">
      <path
         d="m 1690.8263,185.17319 -2.6758,7.25586 5.3613,0 -2.6855,-7.25586 m -1.1133,-1.94336 2.2363,0 5.5567,14.58008 -2.0508,0 -1.3281,-3.74024 -6.5723,0 -1.3281,3.74024 -2.0801,0 5.5664,-14.58008"
         id="path4451"
         inkscape:connector-curvature="0" />
      <path
         d="m 1700.9728,183.76694 0,3.10547 3.7012,0 0,1.39648 -3.7012,0 0,5.9375 c 0,0.89193 0.1204,1.46485 0.3613,1.71875 0.2474,0.25391 0.7454,0.38086 1.4941,0.38086 l 1.8458,0 0,1.50391 -1.8458,0 c -1.3867,0 -2.3437,-0.25717 -2.871,-0.77149 -0.5274,-0.52083 -0.7911,-1.46484 -0.7911,-2.83203 l 0,-5.9375 -1.3183,0 0,-1.39648 1.3183,0 0,-3.10547 1.8067,0"
         id="path4453"
         inkscape:connector-curvature="0" />
      <path
         d="m 1708.8243,183.76694 0,3.10547 3.7012,0 0,1.39648 -3.7012,0 0,5.9375 c 0,0.89193 0.1205,1.46485 0.3614,1.71875 0.2474,0.25391 0.7454,0.38086 1.4941,0.38086 l 1.8457,0 0,1.50391 -1.8457,0 c -1.3867,0 -2.3437,-0.25717 -2.8711,-0.77149 -0.5273,-0.52083 -0.791,-1.46484 -0.791,-2.83203 l 0,-5.9375 -1.3184,0 0,-1.39648 1.3184,0 0,-3.10547 1.8066,0"
         id="path4455"
         inkscape:connector-curvature="0" />
      <path
         d="m 1724.254,191.89194 0,0.8789 -8.2617,0 c 0.078,1.23699 0.4492,2.181 1.1133,2.83203 0.6706,0.64454 1.6015,0.9668 2.793,0.9668 0.6901,0 1.3574,-0.0846 2.0019,-0.2539 0.651,-0.16927 1.2956,-0.42318 1.9336,-0.76172 l 0,1.69922 c -0.6445,0.27343 -1.3053,0.48177 -1.9824,0.625 -0.6771,0.14322 -1.364,0.21484 -2.0606,0.21484 -1.7448,0 -3.1282,-0.50781 -4.1504,-1.52344 -1.0156,-1.01562 -1.5234,-2.38932 -1.5234,-4.12109 0,-1.79036 0.4818,-3.20963 1.4453,-4.25781 0.9701,-1.05468 2.2754,-1.58202 3.916,-1.58204 1.4714,2e-5 2.6335,0.47528 3.4864,1.42579 0.8593,0.94401 1.289,2.22982 1.289,3.85742 m -1.7968,-0.52735 c -0.013,-0.98306 -0.2898,-1.76757 -0.8301,-2.35351 -0.5339,-0.58593 -1.2435,-0.8789 -2.1289,-0.87891 -1.0026,1e-5 -1.8067,0.28321 -2.4121,0.84961 -0.599,0.56642 -0.9441,1.36394 -1.0352,2.39258 l 6.4063,-0.01"
         id="path4457"
         inkscape:connector-curvature="0" />
      <path
         d="m 1736.295,191.20834 0,6.60157 -1.7968,0 0,-6.54297 c 0,-1.03515 -0.2019,-1.80989 -0.6055,-2.32422 -0.4037,-0.51432 -1.0091,-0.77148 -1.8164,-0.77149 -0.9701,1e-5 -1.735,0.30926 -2.2949,0.92774 -0.5599,0.6185 -0.8399,1.46159 -0.8399,2.5293 l 0,6.18164 -1.8066,0 0,-10.9375 1.8066,0 0,1.69921 c 0.4297,-0.65754 0.9343,-1.14907 1.5137,-1.4746 0.5859,-0.32551 1.2598,-0.48827 2.0215,-0.48829 1.2565,2e-5 2.207,0.39064 2.8515,1.17188 0.6446,0.77475 0.9668,1.91732 0.9668,3.42773"
         id="path4459"
         inkscape:connector-curvature="0" />
      <path
         d="m 1747.0958,188.53256 0,-5.91797 1.7969,0 0,15.19532 -1.7969,0 0,-1.64063 c -0.3776,0.65104 -0.8561,1.13607 -1.4355,1.45508 -0.5729,0.3125 -1.263,0.46875 -2.0703,0.46875 -1.3217,0 -2.3991,-0.52734 -3.2325,-1.58203 -0.8268,-1.05469 -1.2402,-2.4414 -1.2402,-4.16016 0,-1.71874 0.4134,-3.10546 1.2402,-4.16015 0.8334,-1.05468 1.9108,-1.58202 3.2325,-1.58204 0.8073,2e-5 1.4974,0.15952 2.0703,0.47852 0.5794,0.31251 1.0579,0.79428 1.4355,1.44531 m -6.123,3.81836 c 0,1.32162 0.2702,2.36003 0.8105,3.11524 0.5469,0.7487 1.2956,1.12304 2.2461,1.12304 0.9505,0 1.6992,-0.37434 2.2461,-1.12304 0.5469,-0.75521 0.8203,-1.79362 0.8203,-3.11524 0,-1.32161 -0.2734,-2.35676 -0.8203,-3.10547 -0.5469,-0.7552 -1.2956,-1.1328 -2.2461,-1.13281 -0.9505,1e-5 -1.6992,0.37761 -2.2461,1.13281 -0.5403,0.74871 -0.8105,1.78386 -0.8105,3.10547"
         id="path4461"
         inkscape:connector-curvature="0" />
      <path
         d="m 1761.9493,191.89194 0,0.8789 -8.2617,0 c 0.078,1.23699 0.4492,2.181 1.1133,2.83203 0.6706,0.64454 1.6016,0.9668 2.793,0.9668 0.6901,0 1.3574,-0.0846 2.0019,-0.2539 0.6511,-0.16927 1.2956,-0.42318 1.9336,-0.76172 l 0,1.69922 c -0.6445,0.27343 -1.3053,0.48177 -1.9824,0.625 -0.6771,0.14322 -1.3639,0.21484 -2.0605,0.21484 -1.7448,0 -3.1283,-0.50781 -4.1504,-1.52344 -1.0157,-1.01562 -1.5235,-2.38932 -1.5235,-4.12109 0,-1.79036 0.4818,-3.20963 1.4453,-4.25781 0.9701,-1.05468 2.2754,-1.58202 3.9161,-1.58204 1.4713,2e-5 2.6334,0.47528 3.4863,1.42579 0.8593,0.94401 1.289,2.22982 1.289,3.85742 m -1.7968,-0.52735 c -0.013,-0.98306 -0.2898,-1.76757 -0.8301,-2.35351 -0.5339,-0.58593 -1.2435,-0.8789 -2.1289,-0.87891 -1.0026,1e-5 -1.8067,0.28321 -2.4121,0.84961 -0.599,0.56642 -0.944,1.36394 -1.0352,2.39258 l 6.4063,-0.01"
         id="path4463"
         inkscape:connector-curvature="0" />
      <path
         d="m 1773.9904,191.20834 0,6.60157 -1.7969,0 0,-6.54297 c 0,-1.03515 -0.2019,-1.80989 -0.6055,-2.32422 -0.4036,-0.51432 -1.0091,-0.77148 -1.8164,-0.77149 -0.9701,1e-5 -1.735,0.30926 -2.2949,0.92774 -0.5599,0.6185 -0.8399,1.46159 -0.8399,2.5293 l 0,6.18164 -1.8066,0 0,-10.9375 1.8066,0 0,1.69921 c 0.4297,-0.65754 0.9343,-1.14907 1.5137,-1.4746 0.5859,-0.32551 1.2598,-0.48827 2.0215,-0.48829 1.2565,2e-5 2.207,0.39064 2.8516,1.17188 0.6445,0.77475 0.9667,1.91732 0.9668,3.42773"
         id="path4465"
         inkscape:connector-curvature="0" />
      <path
         d="m 1785.465,187.29233 0,1.67969 c -0.5079,-0.27994 -1.0189,-0.48828 -1.5332,-0.625 -0.5079,-0.14322 -1.0222,-0.21484 -1.543,-0.21485 -1.1654,1e-5 -2.0703,0.3711 -2.7148,1.11328 -0.6446,0.73569 -0.9668,1.77084 -0.9668,3.10547 0,1.33464 0.3222,2.37305 0.9668,3.11524 0.6445,0.73567 1.5494,1.10351 2.7148,1.10351 0.5208,0 1.0351,-0.0684 1.543,-0.20508 0.5143,-0.14322 1.0253,-0.35481 1.5332,-0.63476 l 0,1.66015 c -0.5013,0.23438 -1.0222,0.41016 -1.5625,0.52735 -0.5339,0.11719 -1.1036,0.17578 -1.709,0.17578 -1.6472,0 -2.9558,-0.51758 -3.9258,-1.55274 -0.9701,-1.03515 -1.4551,-2.43163 -1.4551,-4.18945 0,-1.78385 0.4883,-3.18684 1.4649,-4.20898 0.983,-1.02213 2.3274,-1.53319 4.0332,-1.53321 0.5533,2e-5 1.0937,0.0586 1.6211,0.17579 0.5273,0.11068 1.0384,0.27995 1.5332,0.50781"
         id="path4467"
         inkscape:connector-curvature="0" />
      <path
         d="m 1797.965,191.89194 0,0.8789 -8.2618,0 c 0.078,1.23699 0.4493,2.181 1.1133,2.83203 0.6706,0.64454 1.6016,0.9668 2.793,0.9668 0.6901,0 1.3574,-0.0846 2.002,-0.2539 0.651,-0.16927 1.2955,-0.42318 1.9335,-0.76172 l 0,1.69922 c -0.6445,0.27343 -1.3053,0.48177 -1.9824,0.625 -0.6771,0.14322 -1.3639,0.21484 -2.0605,0.21484 -1.7448,0 -3.1283,-0.50781 -4.1504,-1.52344 -1.0156,-1.01562 -1.5235,-2.38932 -1.5235,-4.12109 0,-1.79036 0.4818,-3.20963 1.4454,-4.25781 0.97,-1.05468 2.2753,-1.58202 3.916,-1.58204 1.4713,2e-5 2.6334,0.47528 3.4863,1.42579 0.8594,0.94401 1.2891,2.22982 1.2891,3.85742 m -1.7969,-0.52735 c -0.013,-0.98306 -0.2897,-1.76757 -0.8301,-2.35351 -0.5338,-0.58593 -1.2435,-0.8789 -2.1289,-0.87891 -1.0026,1e-5 -1.8066,0.28321 -2.4121,0.84961 -0.599,0.56642 -0.944,1.36394 -1.0352,2.39258 l 6.4063,-0.01"
         id="path4469"
         inkscape:connector-curvature="0" />
    </g>
    <path
       style="fill:#ffffff;fill-opacity:1"
       d="m 1484,238 515.6449,0 0,62.17755 -515.6449,0 z"
       id="rect4067-1"
       inkscape:connector-curvature="0" />
    <g
       style="font-size:20px;font-style:normal;font-weight:normal;line-height:125%;letter-spacing:0px;word-spacing:0px;fill:#000000;fill-opacity:1;stroke:none;font-family:Sans"
       id="text4108">
      <path
         d="m 1526.251,261.96933 2.9394,0 3.7207,9.92187 3.7403,-9.92187 2.9394,0 0,14.58008 -1.9238,0 0,-12.80274 -3.7598,10 -1.9824,0 -3.7598,-10 0,12.80274 -1.914,0 0,-14.58008"
         id="path4429"
         inkscape:connector-curvature="0" />
      <path
         d="m 1547.6768,266.87167 c -0.9636,1e-5 -1.7253,0.37762 -2.2852,1.13282 -0.5599,0.7487 -0.8398,1.77735 -0.8398,3.08593 0,1.3086 0.2766,2.3405 0.83,3.09571 0.5599,0.7487 1.3249,1.12304 2.295,1.12304 0.957,0 1.7154,-0.3776 2.2753,-1.13281 0.5599,-0.7552 0.8399,-1.78385 0.8399,-3.08594 0,-1.29556 -0.28,-2.32095 -0.8399,-3.07617 -0.5599,-0.76171 -1.3183,-1.14257 -2.2753,-1.14258 m 0,-1.52343 c 1.5625,1e-5 2.7897,0.50782 3.6816,1.52343 0.8919,1.01564 1.3379,2.42189 1.3379,4.21875 0,1.79037 -0.446,3.19662 -1.3379,4.21875 -0.8919,1.01563 -2.1191,1.52344 -3.6816,1.52344 -1.5691,0 -2.7995,-0.50781 -3.6914,-1.52344 -0.8855,-1.02213 -1.3282,-2.42838 -1.3282,-4.21875 0,-1.79686 0.4427,-3.20311 1.3282,-4.21875 0.8919,-1.01561 2.1223,-1.52342 3.6914,-1.52343"
         id="path4431"
         inkscape:connector-curvature="0" />
      <path
         d="m 1564.7568,269.94785 0,6.60156 -1.7968,0 0,-6.54297 c 0,-1.03515 -0.2019,-1.80989 -0.6055,-2.32422 -0.4037,-0.51431 -1.0091,-0.77147 -1.8164,-0.77148 -0.9701,1e-5 -1.735,0.30925 -2.2949,0.92773 -0.5599,0.6185 -0.8399,1.4616 -0.8399,2.5293 l 0,6.18164 -1.8066,0 0,-15.19531 1.8066,0 0,5.95703 c 0.4297,-0.65755 0.9343,-1.14908 1.5137,-1.47461 0.5859,-0.32551 1.2598,-0.48827 2.0215,-0.48828 1.2565,1e-5 2.207,0.39063 2.8515,1.17187 0.6446,0.77475 0.9668,1.91733 0.9668,3.42774"
         id="path4433"
         inkscape:connector-curvature="0" />
      <path
         d="m 1573.3311,271.05136 c -1.4519,1e-5 -2.4577,0.16602 -3.0176,0.49805 -0.5599,0.33203 -0.8399,0.89844 -0.8399,1.69922 0,0.63802 0.2084,1.14583 0.625,1.52343 0.4232,0.3711 0.9961,0.55665 1.7188,0.55664 0.9961,10e-6 1.7936,-0.35156 2.3926,-1.05468 0.6054,-0.70964 0.9082,-1.65039 0.9082,-2.82227 l 0,-0.40039 -1.7871,0 m 3.5839,-0.74219 0,6.24024 -1.7968,0 0,-1.66016 c -0.4102,0.66407 -0.9213,1.1556 -1.5332,1.47461 -0.612,0.3125 -1.3607,0.46875 -2.2461,0.46875 -1.1198,0 -2.0118,-0.3125 -2.6758,-0.9375 -0.6576,-0.63151 -0.9863,-1.47461 -0.9863,-2.5293 0,-1.23046 0.4101,-2.15819 1.2304,-2.7832 0.8268,-0.62499 2.0573,-0.93749 3.6914,-0.9375 l 2.5196,0 0,-0.17578 c 0,-0.82682 -0.2735,-1.46484 -0.8203,-1.91406 -0.5404,-0.45572 -1.3021,-0.68359 -2.2852,-0.6836 -0.625,1e-5 -1.2337,0.0749 -1.8262,0.22461 -0.5924,0.14975 -1.1621,0.37436 -1.709,0.67383 l 0,-1.66016 c 0.6576,-0.25389 1.2956,-0.44269 1.9141,-0.5664 0.6185,-0.1302 1.2207,-0.1953 1.8066,-0.19531 1.5821,1e-5 2.7637,0.41016 3.545,1.23046 0.7812,0.82033 1.1718,2.06381 1.1718,3.73047"
         id="path4435"
         inkscape:connector-curvature="0" />
      <path
         d="m 1589.7178,269.94785 0,6.60156 -1.7969,0 0,-6.54297 c 0,-1.03515 -0.2018,-1.80989 -0.6055,-2.32422 -0.4036,-0.51431 -1.0091,-0.77147 -1.8164,-0.77148 -0.97,1e-5 -1.735,0.30925 -2.2949,0.92773 -0.5599,0.6185 -0.8398,1.4616 -0.8398,2.5293 l 0,6.18164 -1.8067,0 0,-10.9375 1.8067,0 0,1.69922 c 0.4296,-0.65755 0.9342,-1.14908 1.5136,-1.47461 0.586,-0.32551 1.2598,-0.48827 2.0215,-0.48828 1.2565,1e-5 2.207,0.39063 2.8516,1.17187 0.6445,0.77475 0.9668,1.91733 0.9668,3.42774"
         id="path4437"
         inkscape:connector-curvature="0" />
      <path
         d="m 1599.7666,261.96933 1.9727,0 0,6.16211 6.5429,-6.16211 2.5391,0 -7.2363,6.79687 7.7539,7.78321 -2.5977,0 -7.0019,-7.02149 0,7.02149 -1.9727,0 0,-14.58008"
         id="path4439"
         inkscape:connector-curvature="0" />
      <path
         d="m 1611.6514,272.233 0,-6.62109 1.7968,0 0,6.55273 c 0,1.03516 0.2019,1.81316 0.6055,2.33399 0.4037,0.51432 1.0091,0.77148 1.8164,0.77148 0.9701,0 1.735,-0.30924 2.2949,-0.92773 0.5664,-0.61849 0.8496,-1.46159 0.8496,-2.5293 l 0,-6.20117 1.7969,0 0,10.9375 -1.7969,0 0,-1.67969 c -0.4362,0.66406 -0.944,1.15886 -1.5234,1.48438 -0.5729,0.31901 -1.2402,0.47851 -2.0019,0.47851 -1.2566,0 -2.2103,-0.39062 -2.8614,-1.17187 -0.651,-0.78125 -0.9765,-1.92383 -0.9765,-3.42774 m 4.5215,-6.88476 0,0"
         id="path4441"
         inkscape:connector-curvature="0" />
      <path
         d="m 1633.0479,267.71152 c 0.4492,-0.80728 0.9863,-1.40299 1.6113,-1.78711 0.625,-0.38411 1.3606,-0.57616 2.207,-0.57617 1.1393,1e-5 2.0182,0.4004 2.6367,1.20117 0.6185,0.79428 0.9277,1.92709 0.9278,3.39844 l 0,6.60156 -1.8067,0 0,-6.54297 c 0,-1.04817 -0.1855,-1.82616 -0.5566,-2.33399 -0.3711,-0.5078 -0.9375,-0.7617 -1.6992,-0.76171 -0.931,1e-5 -1.6667,0.30925 -2.2071,0.92773 -0.5403,0.6185 -0.8105,1.4616 -0.8105,2.5293 l 0,6.18164 -1.8067,0 0,-6.54297 c 0,-1.05468 -0.1855,-1.83267 -0.5566,-2.33399 -0.3711,-0.5078 -0.944,-0.7617 -1.7187,-0.76171 -0.918,1e-5 -1.6472,0.31251 -2.1875,0.9375 -0.5404,0.61849 -0.8106,1.45834 -0.8106,2.51953 l 0,6.18164 -1.8066,0 0,-10.9375 1.8066,0 0,1.69922 c 0.4102,-0.67057 0.9017,-1.16536 1.4746,-1.48438 0.5729,-0.319 1.2533,-0.4785 2.041,-0.47851 0.7943,1e-5 1.4681,0.20183 2.0215,0.60546 0.5599,0.40366 0.9733,0.9896 1.2403,1.75782"
         id="path4443"
         inkscape:connector-curvature="0" />
      <path
         d="m 1648.9951,271.05136 c -1.4518,1e-5 -2.4577,0.16602 -3.0176,0.49805 -0.5599,0.33203 -0.8398,0.89844 -0.8398,1.69922 0,0.63802 0.2083,1.14583 0.625,1.52343 0.4232,0.3711 0.9961,0.55665 1.7187,0.55664 0.9961,10e-6 1.7937,-0.35156 2.3926,-1.05468 0.6055,-0.70964 0.9082,-1.65039 0.9082,-2.82227 l 0,-0.40039 -1.7871,0 m 3.584,-0.74219 0,6.24024 -1.7969,0 0,-1.66016 c -0.4101,0.66407 -0.9212,1.1556 -1.5332,1.47461 -0.612,0.3125 -1.3607,0.46875 -2.2461,0.46875 -1.1198,0 -2.0117,-0.3125 -2.6758,-0.9375 -0.6575,-0.63151 -0.9863,-1.47461 -0.9863,-2.5293 0,-1.23046 0.4102,-2.15819 1.2305,-2.7832 0.8268,-0.62499 2.0573,-0.93749 3.6914,-0.9375 l 2.5195,0 0,-0.17578 c 0,-0.82682 -0.2734,-1.46484 -0.8203,-1.91406 -0.5404,-0.45572 -1.3021,-0.68359 -2.2851,-0.6836 -0.625,1e-5 -1.2338,0.0749 -1.8262,0.22461 -0.5925,0.14975 -1.1621,0.37436 -1.709,0.67383 l 0,-1.66016 c 0.6576,-0.25389 1.2956,-0.44269 1.9141,-0.5664 0.6184,-0.1302 1.2207,-0.1953 1.8066,-0.19531 1.582,1e-5 2.7637,0.41016 3.5449,1.23046 0.7813,0.82033 1.1719,2.06381 1.1719,3.73047"
         id="path4445"
         inkscape:connector-curvature="0" />
      <path
         d="m 1662.6279,267.2916 c -0.2018,-0.11718 -0.4232,-0.20182 -0.664,-0.25391 -0.2344,-0.0586 -0.4948,-0.0879 -0.7813,-0.0879 -1.0156,10e-6 -1.7969,0.33204 -2.3437,0.99609 -0.5404,0.65756 -0.8106,1.60483 -0.8106,2.8418 l 0,5.76172 -1.8066,0 0,-10.9375 1.8066,0 0,1.69922 c 0.3776,-0.66406 0.8692,-1.15559 1.4746,-1.47461 0.6055,-0.32551 1.3412,-0.48827 2.2071,-0.48828 0.1237,10e-6 0.2604,0.01 0.4101,0.0293 0.1497,0.013 0.3158,0.0358 0.4981,0.0684 l 0.01,1.84571"
         id="path4447"
         inkscape:connector-curvature="0" />
    </g>
    <path
       style="fill:#333333;fill-opacity:1"
       d="m 1940,260 20,0 0,20 -20,0 z"
       id="rect4114"
       inkscape:connector-curvature="0" />
    <path
       style="fill:#333333;fill-opacity:1"
       d="m 1900,260 20,0 0,20 -20,0 z"
       id="rect4116"
       inkscape:connector-curvature="0" />
    <path
       style="fill:#ececec;fill-opacity:1"
       d="m 790,1446 520,0 0,960 -520,0 z"
       id="rect4061-6"
       inkscape:connector-curvature="0" />
    <rect
       style="fill:#ffffff;fill-opacity:1"
       id="rect4067-0"
       width="520"
       height="60"
       x="790"
       y="1448"
       ry="0" />
    <rect
       style="fill:#ffffff;fill-opacity:1"
       id="rect4067-1-8"
       width="515.6449"
       height="62.177551"
       x="794"
       y="1524"
       ry="0" />
    <text
       xml:space="preserve"
       style="font-size:20px;font-style:normal;font-weight:normal;line-height:125%;letter-spacing:0px;word-spacing:0px;fill:#000000;fill-opacity:1;stroke:none;font-family:Sans"
       x="834.28809"
       y="1562.5494"
       id="text4108-8"
       sodipodi:linespacing="125%"><tspan
         sodipodi:role="line"
         id="tspan4110"
         x="834.28809"
         y="1562.5494">Mohan Kumar</tspan></text>
    <rect
       style="fill:#333333;fill-opacity:1"
       id="rect4114-8"
       width="20"
       height="20"
       x="1250"
       y="1546" />
    <text
       xml:space="preserve"
       style="font-size:20px;font-style:normal;font-weight:normal;line-height:125%;letter-spacing:0px;word-spacing:0px;fill:#000000;fill-opacity:1;stroke:none;font-family:Sans"
       x="966"
       y="1484"
       id="text4510"
       sodipodi:linespacing="125%"><tspan
         sodipodi:role="line"
         id="tspan4512"
         x="966"
         y="1484"
         style="font-weight:bold;-inkscape-font-specification:Sans Bold">Authentication</tspan></text>
    <rect
       style="fill:#ececec;fill-opacity:1"
       id="rect4061-9"
       width="520"
       height="960"
       x="1480"
       y="1442" />
    <rect
       style="fill:#ffffff;fill-opacity:1"
       id="rect4067-2"
       width="520"
       height="60"
       x="1480"
       y="1444"
       ry="0" />
    <text
       xml:space="preserve"
       style="font-size:20px;font-style:normal;font-weight:normal;line-height:125%;letter-spacing:0px;word-spacing:0px;fill:#000000;fill-opacity:1;stroke:none;font-family:Sans"
       x="1662"
       y="1478"
       id="text4551"
       sodipodi:linespacing="125%"><tspan
         sodipodi:role="line"
         id="tspan4553"
         x="1662"
         y="1478"
         style="font-weight:bold;fill:#666666;-inkscape-font-specification:Sans Bold">Create Project</tspan></text>
    <flowRoot
       xml:space="preserve"
       id="flowRoot4555"
       style="font-size:20px;font-style:normal;font-weight:normal;line-height:125%;letter-spacing:0px;word-spacing:0px;fill:#000000;fill-opacity:1;stroke:none;font-family:Sans"><flowRegion
         id="flowRegion4557"><rect
           id="rect4559"
           width="442"
           height="86"
           x="1520"
           y="1520" /></flowRegion><flowPara
         id="flowPara4561"></flowPara></flowRoot>    <text
       xml:space="preserve"
       style="font-size:20px;font-style:normal;font-weight:normal;line-height:125%;letter-spacing:0px;word-spacing:0px;fill:#000000;fill-opacity:1;stroke:none;font-family:Sans"
       x="1522"
       y="1538"
       id="text4563"
       sodipodi:linespacing="125%"><tspan
         sodipodi:role="line"
         id="tspan4565"
         x="1522"
         y="1538"
         style="fill:#333333">Project Name</tspan></text>
    <path
       style="fill:none;stroke:#000000;stroke-width:1px;stroke-linecap:butt;stroke-linejoin:miter;stroke-opacity:1"
       d="m 1540,1560 400,0 c 0,0 20,0 20,20 0,20 -20,20 -20,20 l -400,0 c 0,0 -20,0 -20,-20 0,-20 20,-20 20,-20 z"
       id="path4569"
       inkscape:connector-curvature="0"
       sodipodi:nodetypes="ccsccsc" />
    <text
       xml:space="preserve"
       style="font-size:20px;font-style:normal;font-weight:normal;line-height:125%;letter-spacing:0px;word-spacing:0px;fill:#000000;fill-opacity:1;stroke:none;font-family:Sans"
       x="1526"
       y="1660"
       id="text4563-8"
       sodipodi:linespacing="125%"><tspan
         sodipodi:role="line"
         id="tspan4565-9"
         x="1526"
         y="1660"
         style="fill:#333333">Project Start Date</tspan></text>
    <path
       style="fill:none;stroke:#000000;stroke-width:1px;stroke-linecap:butt;stroke-linejoin:miter;stroke-opacity:1"
       d="m 1540,1682 400,0 c 0,0 20,0 20,20 0,20 -20,20 -20,20 l -400,0 c 0,0 -20,0 -20,-20 0,-20 20,-20 20,-20 z"
       id="path4569-3"
       inkscape:connector-curvature="0"
       sodipodi:nodetypes="ccsccsc" />
    <path
       style="fill:none;stroke:#000000;stroke-width:1px;stroke-linecap:butt;stroke-linejoin:miter;stroke-opacity:1"
       d="m 1538,1804 400,0 c 0,0 20,0 20,20 0,20 -20,20 -20,20 l -400,0 c 0,0 -20,0 -20,-20 0,-20 20,-20 20,-20 z"
       id="path4569-3-6"
       inkscape:connector-curvature="0"
       sodipodi:nodetypes="ccsccsc" />
    <text
       xml:space="preserve"
       style="font-size:20px;font-style:normal;font-weight:normal;line-height:125%;letter-spacing:0px;word-spacing:0px;fill:#000000;fill-opacity:1;stroke:none;font-family:Sans"
       x="1526"
       y="1778"
       id="text4563-8-0"
       sodipodi:linespacing="125%"><tspan
         sodipodi:role="line"
         id="tspan4565-9-2"
         x="1526"
         y="1778"
         style="fill:#333333">Project End Date</tspan></text>
    <path
       style="fill:#8080ff;stroke:#000000;stroke-width:1px;stroke-linecap:butt;stroke-linejoin:miter;stroke-opacity:1"
       d="m 1536,1920 400,0 c 0,0 20,0 20,20 0,20 -20,20 -20,20 l -400,0 c 0,0 -20,0 -20,-20 0,-20 20,-20 20,-20 z"
       id="path4569-3-0"
       inkscape:connector-curvature="0"
       sodipodi:nodetypes="ccsccsc" />
    <path
       style="fill:none;stroke:#000000;stroke-width:1px;stroke-linecap:butt;stroke-linejoin:miter;stroke-opacity:1"
       d="m 1538,1982 400,0 c 0,0 20,0 20,20 0,20 -20,20 -20,20 l -400,0 c 0,0 -20,0 -20,-20 0,-20 20,-20 20,-20 z"
       id="path4569-3-1"
       inkscape:connector-curvature="0"
       sodipodi:nodetypes="ccsccsc" />
    <path
       style="color:#000000;fill:#999999;fill-opacity:1;fill-rule:nonzero;stroke:#000000;stroke-width:2px;stroke-linecap:butt;stroke-linejoin:miter;stroke-miterlimit:4;stroke-opacity:1;stroke-dasharray:none;stroke-dashoffset:0;marker:none;visibility:visible;display:inline;overflow:visible;enable-background:accumulate"
       d="m 1528.8058,2017.8884 c -7.4255,-2.9918 -11.075,-15.2894 -7.3884,-24.8964 3.5506,-9.2528 -0.3582,-9.0896 217.8122,-9.0896 l 205.2531,0 5.8462,5.8461 c 8.7721,8.7722 6.9842,23.1707 -3.4685,27.9333 -5.9877,2.7282 -411.299,2.9285 -418.0546,0.2066 z"
       id="path4760"
       inkscape:connector-curvature="0" />
    <text
       xml:space="preserve"
       style="font-size:20px;font-style:normal;font-weight:normal;line-height:125%;letter-spacing:0px;word-spacing:0px;fill:#ffffff;fill-opacity:1;stroke:none;font-family:Sans"
       x="1712"
       y="1946"
       id="text4762"
       sodipodi:linespacing="125%"><tspan
         sodipodi:role="line"
         id="tspan4764"
         x="1712"
         y="1946">Done</tspan></text>
    <text
       xml:space="preserve"
       style="font-size:20px;font-style:normal;font-weight:normal;line-height:125%;letter-spacing:0px;word-spacing:0px;fill:#ffffff;fill-opacity:1;stroke:none;font-family:Sans"
       x="1706"
       y="2008"
       id="text4766"
       sodipodi:linespacing="125%"><tspan
         sodipodi:role="line"
         id="tspan4768"
         x="1706"
         y="2008">Cancel</tspan></text>
    <path
       inkscape:connector-curvature="0"
       style="fill:#ececec;fill-opacity:1"
       d="m 2198,1440 520,0 0,960 -520,0 z"
       id="rect4061-6-0" />
    <rect
       style="fill:#ffffff;fill-opacity:1"
       id="rect4067-0-6"
       width="520"
       height="60"
       x="2198"
       y="1442"
       ry="0" />
    <text
       xml:space="preserve"
       style="font-size:20px;font-style:normal;font-weight:normal;line-height:125%;letter-spacing:0px;word-spacing:0px;fill:#000000;fill-opacity:1;stroke:none;font-family:Sans"
       x="2394"
       y="1478"
       id="text4510-8"
       sodipodi:linespacing="125%"><tspan
         sodipodi:role="line"
         id="tspan4512-1"
         x="2394"
         y="1478"
         style="font-weight:bold;fill:#4d4d4d;-inkscape-font-specification:Sans Bold">Add Admin</tspan></text>
    <path
       style="fill:none;stroke:#000000;stroke-width:1px;stroke-linecap:butt;stroke-linejoin:miter;stroke-opacity:1"
       d="m 2258,1562 400,0 c 0,0 20,0 20,20 0,20 -20,20 -20,20 l -400,0 c 0,0 -20,0 -20,-20 0,-20 20,-20 20,-20 z"
       id="path4569-31"
       inkscape:connector-curvature="0"
       sodipodi:nodetypes="ccsccsc" />
    <text
       xml:space="preserve"
       style="font-size:20px;font-style:normal;font-weight:normal;line-height:125%;letter-spacing:0px;word-spacing:0px;fill:#000000;fill-opacity:1;stroke:none;font-family:Sans"
       x="2244"
       y="1540"
       id="text4563-1"
       sodipodi:linespacing="125%"><tspan
         sodipodi:role="line"
         id="tspan4565-0"
         x="2244"
         y="1540"
         style="fill:#333333">Admin Email</tspan></text>
    <flowRoot
       xml:space="preserve"
       id="flowRoot4924"
       style="font-size:20px;font-style:normal;font-weight:normal;line-height:125%;letter-spacing:0px;word-spacing:0px;fill:#000000;fill-opacity:1;stroke:none;font-family:Sans"><flowRegion
         id="flowRegion4926"><rect
           id="rect4928"
           width="436"
           height="148"
           x="1520"
           y="1898" /></flowRegion><flowPara
         id="flowPara4930"></flowPara></flowRoot>    <path
       style="fill:#8080ff;stroke:#000000;stroke-width:1px;stroke-linecap:butt;stroke-linejoin:miter;stroke-opacity:1"
       d="m 2252,1684 400,0 c 0,0 20,0 20,20 0,20 -20,20 -20,20 l -400,0 c 0,0 -20,0 -20,-20 0,-20 20,-20 20,-20 z"
       id="path4569-3-0-3"
       inkscape:connector-curvature="0"
       sodipodi:nodetypes="ccsccsc" />
    <path
       style="fill:none;stroke:#000000;stroke-width:1px;stroke-linecap:butt;stroke-linejoin:miter;stroke-opacity:1"
       d="m 2254,1746 400,0 c 0,0 20,0 20,20 0,20 -20,20 -20,20 l -400,0 c 0,0 -20,0 -20,-20 0,-20 20,-20 20,-20 z"
       id="path4569-3-1-4"
       inkscape:connector-curvature="0"
       sodipodi:nodetypes="ccsccsc" />
    <path
       style="color:#000000;fill:#999999;fill-opacity:1;fill-rule:nonzero;stroke:#000000;stroke-width:2px;stroke-linecap:butt;stroke-linejoin:miter;stroke-miterlimit:4;stroke-opacity:1;stroke-dasharray:none;stroke-dashoffset:0;marker:none;visibility:visible;display:inline;overflow:visible;enable-background:accumulate"
       d="m 2244.8058,1781.8884 c -7.4255,-2.9918 -11.075,-15.2894 -7.3884,-24.8964 3.5506,-9.2528 -0.3582,-9.0896 217.8122,-9.0896 l 205.2531,0 5.8462,5.8461 c 8.7721,8.7722 6.9842,23.1707 -3.4685,27.9333 -5.9877,2.7282 -411.299,2.9285 -418.0546,0.2066 z"
       id="path4760-0"
       inkscape:connector-curvature="0" />
    <text
       xml:space="preserve"
       style="font-size:20px;font-style:normal;font-weight:normal;line-height:125%;letter-spacing:0px;word-spacing:0px;fill:#ffffff;fill-opacity:1;stroke:none;font-family:Sans"
       x="2422"
       y="1772"
       id="text4766-1"
       sodipodi:linespacing="125%"><tspan
         sodipodi:role="line"
         id="tspan4768-9"
         x="2422"
         y="1772">Cancel</tspan></text>
    <text
       xml:space="preserve"
       style="font-size:20px;font-style:normal;font-weight:normal;line-height:125%;letter-spacing:0px;word-spacing:0px;fill:#000000;fill-opacity:1;stroke:none;font-family:Sans"
       x="2436"
       y="1710"
       id="text4968"
       sodipodi:linespacing="125%"><tspan
         sodipodi:role="line"
         id="tspan4970"
         x="2436"
         y="1710"
         style="fill:#ffffff">Add</tspan></text>
    <path
       inkscape:connector-curvature="0"
       style="fill:#f2f2f2"
       d="m 2822,20 660,0 0,1260 -660,0 z"
       id="rect2991-33" />
  </g>
  <g
     inkscape:label="app"
     inkscape:groupmode="layer"
     id="layer1"
     transform="translate(0,-557.0866)">
    <path
       transform="translate(0,557.0866)"
       style="fill:#f2f2f2"
       d="m 20,20 660,0 0,1260 -660,0 z"
       id="rect2991" />
    <rect
       style="fill:#ececec"
       id="rect2991-3"
       width="660"
       height="1260"
       x="722"
       y="580.90906" />
    <rect
       style="fill:#f2f2f2"
       id="rect2991-6"
       width="660"
       height="1260"
       x="20"
       y="1879.0865" />
    <rect
       style="fill:#ececec"
       id="rect3027"
       width="660"
       height="120"
       x="20"
       y="1160"
       transform="translate(0,557.0866)" />
    <rect
       style="fill:#ffffff"
       id="rect3029"
       width="660"
       height="100"
       x="20"
       y="20"
       transform="translate(0,557.0866)" />
    <rect
       style="fill:#ffffff"
       id="rect3031"
       width="659.59796"
       height="84.355095"
       x="20.40201"
       y="692.73151" />
    <rect
       style="fill:#ffffff"
       id="rect3031-5"
       width="657.01837"
       height="82.177559"
       x="21.306532"
       y="797.08661" />
    <text
       xml:space="preserve"
       style="font-size:20px;font-style:normal;font-weight:normal;line-height:125%;letter-spacing:0px;word-spacing:0px;fill:#000000;fill-opacity:1;stroke:none;font-family:Sans"
       x="84.924622"
       y="180.73701"
       id="text3057"
       sodipodi:linespacing="125%"
       transform="translate(0,557.0866)"><tspan
         sodipodi:role="line"
         id="tspan3059"
         x="84.924622"
         y="180.73701" /></text>
    <text
       xml:space="preserve"
       style="font-size:20px;font-style:normal;font-weight:normal;line-height:125%;letter-spacing:0px;word-spacing:0px;fill:#000000;fill-opacity:1;stroke:none;font-family:Sans"
       x="64.924622"
       y="845.99109"
       id="text3061"
       sodipodi:linespacing="125%"><tspan
         sodipodi:role="line"
         id="tspan3063"
         x="64.924622"
         y="845.99109"
         style="font-size:24px">Steel Management</tspan></text>
    <text
       xml:space="preserve"
       style="font-size:20px;font-style:normal;font-weight:normal;line-height:125%;letter-spacing:0px;word-spacing:0px;fill:#000000;fill-opacity:1;stroke:none;font-family:Sans"
       x="64.74707"
       y="746.00116"
       id="text3065"
       sodipodi:linespacing="125%"><tspan
         sodipodi:role="line"
         id="tspan3067"
         x="64.74707"
         y="746.00116"
         style="font-size:24px">Mineral Management</tspan></text>
    <rect
       style="fill:#ffffff"
       id="rect3073"
       width="655.24286"
       height="260.40201"
       x="722"
       y="701.08661" />
    <text
       xml:space="preserve"
       style="font-size:20px;font-style:normal;font-weight:normal;line-height:125%;letter-spacing:0px;word-spacing:0px;fill:#000000;fill-opacity:1;stroke:none;font-family:Sans"
       x="764.74707"
       y="764.00116"
       id="text3065-3"
       sodipodi:linespacing="125%"><tspan
         sodipodi:role="line"
         id="tspan3067-5"
         x="764.74707"
         y="764.00116"
         style="font-size:28px">Mineral Management</tspan></text>
    <text
       xml:space="preserve"
       style="font-size:20px;font-style:normal;font-weight:normal;line-height:125%;letter-spacing:0px;word-spacing:0px;fill:#000000;fill-opacity:1;stroke:none;font-family:Sans"
       x="762.14404"
       y="797.77673"
       id="text3096"
       sodipodi:linespacing="125%"><tspan
         sodipodi:role="line"
         id="tspan3098"
         x="762.14404"
         y="797.77673">Start  <tspan
   style="font-weight:bold;-inkscape-font-specification:Sans Bold"
   id="tspan3100">12th July 2018</tspan></tspan></text>
    <text
       xml:space="preserve"
       style="font-size:20px;font-style:normal;font-weight:normal;line-height:125%;letter-spacing:0px;word-spacing:0px;fill:#000000;fill-opacity:1;stroke:none;font-family:Sans"
       x="762.05023"
       y="838.1687"
       id="text3102"
       sodipodi:linespacing="125%"><tspan
         sodipodi:role="line"
         id="tspan3104"
         x="762.05023"
         y="838.1687"><tspan
           style="font-weight:bold;-inkscape-font-specification:Sans Bold"
           id="tspan3106"><tspan
   style="font-weight:normal;-inkscape-font-specification:Sans"
   id="tspan3108">End</tspan>    12th August 2018</tspan></tspan></text>
    <flowRoot
       xml:space="preserve"
       id="flowRoot3134"
       style="font-size:20px;font-style:normal;font-weight:normal;line-height:125%;letter-spacing:0px;word-spacing:0px;fill:#ffffff;fill-opacity:1;stroke:none;font-family:Sans"
       transform="translate(0,557.0866)"><flowRegion
         id="flowRegion3136"><rect
           id="rect3138"
           width="653.26636"
           height="74.03685"
           x="725.12561"
           y="344.05359"
           style="fill:#ffffff" /></flowRegion><flowPara
         id="flowPara3140"></flowPara></flowRoot>    <rect
       style="fill:#8080ff"
       id="rect3176"
       width="140"
       height="60"
       x="520"
       y="40"
       transform="translate(0,557.0866)"
       rx="10"
       ry="10" />
    <text
       xml:space="preserve"
       style="font-size:20px;font-style:normal;font-weight:normal;line-height:125%;letter-spacing:0px;word-spacing:0px;fill:#ffffff;fill-opacity:1;stroke:none;font-family:Sans"
       x="567.27637"
       y="634.59076"
       id="text3178"
       sodipodi:linespacing="125%"><tspan
         sodipodi:role="line"
         id="tspan3180"
         x="567.27637"
         y="634.59076"
         style="font-weight:bold;-inkscape-font-specification:Sans Bold">Add</tspan></text>
    <rect
       style="fill:#ffffff"
       id="rect3142-9"
       width="660"
       height="60"
       x="20"
       y="1996.1519" />
    <text
       xml:space="preserve"
       style="font-size:20px;font-style:normal;font-weight:normal;line-height:125%;letter-spacing:0px;word-spacing:0px;fill:#000000;fill-opacity:1;stroke:none;font-family:Sans"
       x="64.452271"
       y="1975.5422"
       id="text3182"
       sodipodi:linespacing="125%"><tspan
         sodipodi:role="line"
         id="tspan3184"
         x="64.452271"
         y="1975.5422">Admins</tspan></text>
    <rect
       style="fill:#ffffff"
       id="rect3142-9-1"
       width="657.82245"
       height="60"
       x="20.177555"
       y="2078.1519" />
    <rect
       style="fill:#ffffff"
       id="rect3142-9-1-2"
       width="660"
       height="60"
       x="20"
       y="2222.1519" />
    <rect
       style="fill:#ffffff"
       id="rect3142-9-1-7"
       width="660"
       height="60"
       x="18"
       y="2302.1519" />
    <text
       xml:space="preserve"
       style="font-size:20px;font-style:normal;font-weight:normal;line-height:125%;letter-spacing:0px;word-spacing:0px;fill:#000000;fill-opacity:1;stroke:none;font-family:Sans"
       x="63.564461"
       y="2193.2976"
       id="text3229"
       sodipodi:linespacing="125%"><tspan
         sodipodi:role="line"
         id="tspan3231"
         x="63.564461"
         y="2193.2976">Contractors</tspan></text>
    <rect
       style="fill:#ffffff"
       id="rect3142-9-1-2-6"
       width="655.6449"
       height="60"
       x="22.355108"
       y="2442.1519" />
    <rect
       style="fill:#ffffff"
       id="rect3142-9-1-7-2"
       width="655.6449"
       height="60"
       x="20.355108"
       y="2522.1519" />
    <text
       xml:space="preserve"
       style="font-size:20px;font-style:normal;font-weight:normal;line-height:125%;letter-spacing:0px;word-spacing:0px;fill:#000000;fill-opacity:1;stroke:none;font-family:Sans"
       x="61.564453"
       y="2413.2976"
       id="text3229-6"
       sodipodi:linespacing="125%"><tspan
         sodipodi:role="line"
         id="tspan3231-1"
         x="61.564453"
         y="2413.2976">Workers</tspan></text>
    <rect
       style="fill:#ffffff"
       id="rect3029-8"
       width="660"
       height="100"
       x="719.82245"
       y="581.08661" />
    <text
       xml:space="preserve"
       style="font-size:20px;font-style:normal;font-weight:normal;line-height:125%;letter-spacing:0px;word-spacing:0px;fill:#ffffff;fill-opacity:1;stroke:none;font-family:Sans"
       x="1269.2764"
       y="634.59076"
       id="text3178-9"
       sodipodi:linespacing="125%"><tspan
         sodipodi:role="line"
         id="tspan3180-2"
         x="1269.2764"
         y="634.59076"
         style="font-weight:bold;-inkscape-font-specification:Sans Bold">Add</tspan></text>
    <rect
       style="fill:#8080ff"
       id="rect3176-7-0"
       width="161.77554"
       height="60"
       x="760"
       y="881.08661"
       rx="11.555396"
       ry="10" />
    <text
       xml:space="preserve"
       style="font-size:20px;font-style:normal;font-weight:normal;line-height:125%;letter-spacing:0px;word-spacing:0px;fill:#ffffff;fill-opacity:1;stroke:none;font-family:Sans"
       x="779.27637"
       y="914.59076"
       id="text3178-9-2"
       sodipodi:linespacing="125%"><tspan
         sodipodi:role="line"
         id="tspan3180-2-3"
         x="779.27637"
         y="914.59076"
         style="font-weight:bold;-inkscape-font-specification:Sans Bold">Manpower</tspan></text>
    <text
       xml:space="preserve"
       style="font-size:20px;font-style:normal;font-weight:normal;line-height:125%;letter-spacing:0px;word-spacing:0px;fill:#000000;fill-opacity:1;stroke:none;font-family:Sans"
       x="764.32159"
       y="1011.8404"
       id="text3404"
       sodipodi:linespacing="125%"><tspan
         sodipodi:role="line"
         id="tspan3406"
         x="764.32159"
         y="1011.8404">Shift</tspan></text>
    <rect
       style="fill:#ffffff"
       id="rect3031-5-9"
       width="657.01837"
       height="182.34508"
       x="722.44556"
       y="1035.1904" />
    <text
       xml:space="preserve"
       style="font-size:20px;font-style:normal;font-weight:normal;line-height:125%;letter-spacing:0px;word-spacing:0px;fill:#000000;fill-opacity:1;stroke:none;font-family:Sans"
       x="764.6767"
       y="1121.3445"
       id="text3441"
       sodipodi:linespacing="125%"><tspan
         sodipodi:role="line"
         id="tspan3443"
         x="764.6767"
         y="1121.3445">Work on Site</tspan></text>
    <text
       xml:space="preserve"
       style="font-size:20px;font-style:normal;font-weight:normal;line-height:125%;letter-spacing:0px;word-spacing:0px;fill:#000000;fill-opacity:1;stroke:none;font-family:Sans"
       x="1187.5176"
       y="1075.4752"
       id="text3445"
       sodipodi:linespacing="125%"><tspan
         sodipodi:role="line"
         id="tspan3447"
         x="1187.5176"
         y="1075.4752"
         style="font-size:16px">12th August 2018</tspan></text>
    <text
       xml:space="preserve"
       style="font-size:20px;font-style:normal;font-weight:normal;line-height:125%;letter-spacing:0px;word-spacing:0px;fill:#000000;fill-opacity:1;stroke:none;font-family:Sans"
       x="768.85425"
       y="1078.6343"
       id="text3485"
       sodipodi:linespacing="125%"><tspan
         sodipodi:role="line"
         id="tspan3487"
         x="768.85425"
         y="1078.6343"
         style="font-size:24px;font-weight:bold;-inkscape-font-specification:Sans Bold">Ram</tspan></text>
    <text
       xml:space="preserve"
       style="font-size:20px;font-style:normal;font-weight:normal;line-height:125%;letter-spacing:0px;word-spacing:0px;fill:#0000d4;fill-opacity:1;stroke:none;font-family:Sans"
       x="769.74207"
       y="1190.3998"
       id="text3493"
       sodipodi:linespacing="125%"><tspan
         sodipodi:role="line"
         id="tspan3495"
         x="769.74207"
         y="1190.3998"
         style="fill:#0000d4">Atthendence </tspan></text>
    <text
       xml:space="preserve"
       style="font-size:20px;font-style:normal;font-weight:normal;line-height:125%;letter-spacing:0px;word-spacing:0px;fill:#0000d4;fill-opacity:1;stroke:none;font-family:Sans"
       x="1023.1424"
       y="1192.5774"
       id="text3497"
       sodipodi:linespacing="125%"><tspan
         sodipodi:role="line"
         id="tspan3499"
         x="1023.1424"
         y="1192.5774">Auth</tspan></text>
    <text
       xml:space="preserve"
       style="font-size:20px;font-style:normal;font-weight:normal;line-height:125%;letter-spacing:0px;word-spacing:0px;fill:#0000aa;fill-opacity:1;stroke:none;font-family:Sans"
       x="1196.2345"
       y="1191.8672"
       id="text3501"
       sodipodi:linespacing="125%"><tspan
         sodipodi:role="line"
         id="tspan3503"
         x="1196.2345"
         y="1191.8672" /></text>
    <rect
       style="fill:#ffffff"
       id="rect3031-5-9-9"
       width="657.01837"
       height="182.34508"
       x="722.44556"
       y="1243.1904" />
    <text
       xml:space="preserve"
       style="font-size:20px;font-style:normal;font-weight:normal;line-height:125%;letter-spacing:0px;word-spacing:0px;fill:#000000;fill-opacity:1;stroke:none;font-family:Sans"
       x="766.6767"
       y="1329.3445"
       id="text3441-7"
       sodipodi:linespacing="125%"><tspan
         sodipodi:role="line"
         id="tspan3443-3"
         x="766.6767"
         y="1329.3445">Raw Material Settlement</tspan></text>
    <text
       xml:space="preserve"
       style="font-size:20px;font-style:normal;font-weight:normal;line-height:125%;letter-spacing:0px;word-spacing:0px;fill:#000000;fill-opacity:1;stroke:none;font-family:Sans"
       x="1185.5176"
       y="1283.4752"
       id="text3445-6"
       sodipodi:linespacing="125%"><tspan
         sodipodi:role="line"
         id="tspan3447-1"
         x="1185.5176"
         y="1283.4752"
         style="font-size:16px">12th August 2018</tspan></text>
    <text
       xml:space="preserve"
       style="font-size:20px;font-style:normal;font-weight:normal;line-height:125%;letter-spacing:0px;word-spacing:0px;fill:#000000;fill-opacity:1;stroke:none;font-family:Sans"
       x="764.85425"
       y="1286.6343"
       id="text3485-2"
       sodipodi:linespacing="125%"><tspan
         sodipodi:role="line"
         id="tspan3487-9"
         x="764.85425"
         y="1286.6343"
         style="font-size:24px;font-weight:bold;-inkscape-font-specification:Sans Bold">Shyam</tspan></text>
    <text
       xml:space="preserve"
       style="font-size:20px;font-style:normal;font-weight:normal;line-height:125%;letter-spacing:0px;word-spacing:0px;fill:#0000d4;fill-opacity:1;stroke:none;font-family:Sans"
       x="765.74207"
       y="1398.3998"
       id="text3493-3"
       sodipodi:linespacing="125%"><tspan
         sodipodi:role="line"
         id="tspan3495-1"
         x="765.74207"
         y="1398.3998"
         style="fill:#0000d4">Atthendence</tspan></text>
    <text
       xml:space="preserve"
       style="font-size:20px;font-style:normal;font-weight:normal;line-height:125%;letter-spacing:0px;word-spacing:0px;fill:#0000d4;fill-opacity:1;stroke:none;font-family:Sans"
       x="1023.1424"
       y="1400.5774"
       id="text3497-9"
       sodipodi:linespacing="125%"><tspan
         sodipodi:role="line"
         id="tspan3499-4"
         x="1023.1424"
         y="1400.5774">Auth</tspan></text>
    <text
       xml:space="preserve"
       style="font-size:20px;font-style:normal;font-weight:normal;line-height:125%;letter-spacing:0px;word-spacing:0px;fill:#0000aa;fill-opacity:1;stroke:none;font-family:Sans"
       x="1190.2345"
       y="1399.8672"
       id="text3501-7"
       sodipodi:linespacing="125%"><tspan
         sodipodi:role="line"
         id="tspan3503-8"
         x="1190.2345"
         y="1399.8672" /></text>
    <text
       xml:space="preserve"
       style="font-size:20px;font-style:normal;font-weight:normal;line-height:125%;letter-spacing:0px;word-spacing:0px;fill:#000000;fill-opacity:1;stroke:none;font-family:Sans"
       x="771.56451"
       y="1157.2039"
       id="text3620"
       sodipodi:linespacing="125%"><tspan
         sodipodi:role="line"
         id="tspan3622"
         x="771.56451"
         y="1157.2039"
         style="font-weight:bold;-inkscape-font-specification:Sans Bold">78 %</tspan></text>
    <text
       xml:space="preserve"
       style="font-size:20px;font-style:normal;font-weight:normal;line-height:125%;letter-spacing:0px;word-spacing:0px;fill:#000000;fill-opacity:1;stroke:none;font-family:Sans"
       x="1023.5645"
       y="1157.2039"
       id="text3620-5"
       sodipodi:linespacing="125%"><tspan
         sodipodi:role="line"
         id="tspan3622-4"
         x="1023.5645"
         y="1157.2039"
         style="font-weight:bold;-inkscape-font-specification:Sans Bold">90 %</tspan></text>
    <text
       xml:space="preserve"
       style="font-size:20px;font-style:normal;font-weight:normal;line-height:125%;letter-spacing:0px;word-spacing:0px;fill:#000000;fill-opacity:1;stroke:none;font-family:Sans"
       x="580"
       y="1973.0865"
       id="text4770"
       sodipodi:linespacing="125%"><tspan
         sodipodi:role="line"
         id="tspan4772"
         x="580"
         y="1973.0865"
         style="fill:#0066ff">+ Add</tspan></text>
    <text
       xml:space="preserve"
       style="font-size:20px;font-style:normal;font-weight:normal;line-height:125%;letter-spacing:0px;word-spacing:0px;fill:#000000;fill-opacity:1;stroke:none;font-family:Sans"
       x="582"
       y="2195.0867"
       id="text4774"
       sodipodi:linespacing="125%"><tspan
         sodipodi:role="line"
         id="tspan4776"
         x="582"
         y="2195.0867"
         style="fill:#0066ff">+ Add</tspan></text>
  </g>
</svg>
